<svg width="285" height="232" viewBox="0 0 285 232" fill="none" xmlns="http://www.w3.org/2000/svg">
<g filter="url(#filter0_bdi)">
<path fill-rule="evenodd" clip-rule="evenodd" d="M100.015 151.839C99.7955 151.844 99.575 151.846 99.3539 151.846C82.9128 151.846 69.5847 138.518 69.5847 122.077C69.5847 110.919 75.7229 101.196 84.8067 96.098C84.8023 95.8274 84.8001 95.5563 84.8001 95.2846C84.8001 68.0655 106.866 46 134.085 46C157.563 46 177.208 62.4178 182.163 84.3994C200.128 85.1538 214.462 99.9569 214.462 118.108C214.462 136.741 199.356 151.846 180.723 151.846L100.015 151.846V151.839Z" fill="url(#paint0_radial)" fill-opacity="0.77"/>
</g>
<g style="mix-blend-mode:soft-light" filter="url(#filter1_i)">
<circle cx="99.3539" cy="122.077" r="29.7692" fill="#848484"/>
</g>
<g opacity="0.54" filter="url(#filter2_f)">
<ellipse cx="113.246" cy="119.762" rx="30.4308" ry="28.1154" fill="white"/>
<ellipse cx="142.354" cy="101.569" rx="39.6923" ry="42.3385" fill="white"/>
<ellipse cx="195.277" cy="93.9615" rx="30.4308" ry="28.1154" fill="white"/>
<ellipse cx="94.3923" cy="142.254" rx="35.3923" ry="32.7462" fill="white"/>
<ellipse cx="82.4846" cy="148.538" rx="20.1769" ry="18.5231" fill="white"/>
</g>
<defs>
<filter id="filter0_bdi" x="37.5847" y="30" width="208.877" height="169.846" filterUnits="userSpaceOnUse" color-interpolation-filters="sRGB">
<feFlood flood-opacity="0" result="BackgroundImageFix"/>
<feGaussianBlur in="BackgroundImage" stdDeviation="8"/>
<feComposite in2="SourceAlpha" operator="in" result="effect1_backgroundBlur"/>
<feColorMatrix in="SourceAlpha" type="matrix" values="0 0 0 0 0 0 0 0 0 0 0 0 0 0 0 0 0 0 127 0" result="hardAlpha"/>
<feOffset dy="16"/>
<feGaussianBlur stdDeviation="16"/>
<feColorMatrix type="matrix" values="0 0 0 0 0 0 0 0 0 0.2015 0 0 0 0 0.3875 0 0 0 0.2 0"/>
<feBlend mode="normal" in2="effect1_backgroundBlur" result="effect2_dropShadow"/>
<feBlend mode="normal" in="SourceGraphic" in2="effect2_dropShadow" result="shape"/>
<feColorMatrix in="SourceAlpha" type="matrix" values="0 0 0 0 0 0 0 0 0 0 0 0 0 0 0 0 0 0 127 0" result="hardAlpha"/>
<feOffset dx="1" dy="2"/>
<feGaussianBlur stdDeviation="7"/>
<feComposite in2="hardAlpha" operator="arithmetic" k2="-1" k3="1"/>
<feColorMatrix type="matrix" values="0 0 0 0 1 0 0 0 0 1 0 0 0 0 1 0 0 0 1 0"/>
<feBlend mode="normal" in2="shape" result="effect3_innerShadow"/>
</filter>
<filter id="filter1_i" x="69.5846" y="92.3077" width="81.5385" height="71.5385" filterUnits="userSpaceOnUse" color-interpolation-filters="sRGB">
<feFlood flood-opacity="0" result="BackgroundImageFix"/>
<feBlend mode="normal" in="SourceGraphic" in2="BackgroundImageFix" result="shape"/>
<feColorMatrix in="SourceAlpha" type="matrix" values="0 0 0 0 0 0 0 0 0 0 0 0 0 0 0 0 0 0 127 0" result="hardAlpha"/>
<feOffset dx="22" dy="12"/>
<feGaussianBlur stdDeviation="11"/>
<feComposite in2="hardAlpha" operator="arithmetic" k2="-1" k3="1"/>
<feColorMatrix type="matrix" values="0 0 0 0 1 0 0 0 0 1 0 0 0 0 1 0 0 0 0.74 0"/>
<feBlend mode="normal" in2="shape" result="effect1_innerShadow"/>
</filter>
<filter id="filter2_f" x="0.175659" y="0.406342" width="284.356" height="233.418" filterUnits="userSpaceOnUse" color-interpolation-filters="sRGB">
<feFlood flood-opacity="0" result="BackgroundImageFix"/>
<feBlend mode="normal" in="SourceGraphic" in2="BackgroundImageFix" result="shape"/>
<feGaussianBlur stdDeviation="29.4122" result="effect1_foregroundBlur"/>
</filter>
<radialGradient id="paint0_radial" cx="0" cy="0" r="1" gradientUnits="userSpaceOnUse" gradientTransform="translate(120.632 68.568) rotate(90.6693) scale(83.2404 94.9885)">
<stop stop-color="white"/>
<stop offset="1" stop-color="#99CEFF"/>
</radialGradient>
</defs>
</svg>
