<svg width="285" height="218" viewBox="0 0 285 218" fill="none" xmlns="http://www.w3.org/2000/svg">
<g filter="url(#filter0_bdi)">
<path fill-rule="evenodd" clip-rule="evenodd" d="M99.2466 139.198C99.028 139.203 98.8088 139.205 98.589 139.205C82.2475 139.205 69 125.958 69 109.616C69 98.5264 75.1011 88.8614 84.1298 83.7948C84.1255 83.5258 84.1233 83.2563 84.1233 82.9863C84.1233 55.9319 106.055 34 133.11 34C156.446 34 175.972 50.3185 180.897 72.167C198.754 72.9168 213 87.6303 213 105.671C213 123.751 198.692 138.49 180.781 139.18V139.205H99.2466V139.198Z" fill="url(#paint0_radial)" fill-opacity="0.77"/>
</g>
<g style="mix-blend-mode:soft-light" filter="url(#filter1_i)">
<circle cx="98.5891" cy="109.616" r="29.589" fill="#848484"/>
</g>
<line x1="141.803" y1="109.75" x2="141.803" y2="166.25" stroke="white" stroke-width="3.5" stroke-linecap="round"/>
<path d="M134.369 113.684L141.316 120.632L147.632 113.684" stroke="white" stroke-width="3.5" stroke-linecap="round"/>
<path d="M147.632 165.474L140.684 158.526L134.368 165.474" stroke="white" stroke-width="3.5" stroke-linecap="round"/>
<path d="M138.158 124.421L141.316 127.579L144.474 124.421" stroke="white" stroke-width="3.5" stroke-linecap="round"/>
<path d="M143.842 155.368L140.684 152.211L137.526 155.368" stroke="white" stroke-width="3.5" stroke-linecap="round"/>
<line x1="169.25" y1="138.803" x2="112.75" y2="138.803" stroke="white" stroke-width="3.5" stroke-linecap="round"/>
<path d="M165.316 131.368L158.368 138.316L165.316 144.632" stroke="white" stroke-width="3.5" stroke-linecap="round"/>
<path d="M113.526 144.632L120.474 137.684L113.526 131.368" stroke="white" stroke-width="3.5" stroke-linecap="round"/>
<path d="M154.579 135.158L151.421 138.316L154.579 141.474" stroke="white" stroke-width="3.5" stroke-linecap="round"/>
<path d="M123.632 140.842L126.789 137.684L123.632 134.526" stroke="white" stroke-width="3.5" stroke-linecap="round"/>
<line x1="161.526" y1="118.054" x2="121.575" y2="158.005" stroke="white" stroke-width="3.5" stroke-linecap="round"/>
<path d="M153.316 116.21V126.036L162.694 125.589" stroke="white" stroke-width="3.5" stroke-linecap="round"/>
<path d="M126.158 161.684L126.158 151.859L116.779 152.306" stroke="white" stroke-width="3.5" stroke-linecap="round"/>
<path d="M148.895 125.684V130.15H153.361" stroke="white" stroke-width="3.5" stroke-linecap="round"/>
<path d="M131.211 152.21L131.211 147.745L126.745 147.745" stroke="white" stroke-width="3.5" stroke-linecap="round"/>
<line x1="160.946" y1="158.526" x2="120.995" y2="118.575" stroke="white" stroke-width="3.5" stroke-linecap="round"/>
<path d="M162.789 150.316H152.964L153.411 159.694" stroke="white" stroke-width="3.5" stroke-linecap="round"/>
<path d="M117.316 123.158L127.141 123.158L126.694 113.779" stroke="white" stroke-width="3.5" stroke-linecap="round"/>
<path d="M153.316 145.895H148.85V150.361" stroke="white" stroke-width="3.5" stroke-linecap="round"/>
<path d="M126.789 128.21L131.255 128.21L131.255 123.745" stroke="white" stroke-width="3.5" stroke-linecap="round"/>
<g opacity="0.54" filter="url(#filter2_f)">
<ellipse cx="113.246" cy="119.531" rx="30.4308" ry="28.1154" fill="white"/>
<ellipse cx="142.354" cy="101.338" rx="39.6923" ry="42.3385" fill="white"/>
<ellipse cx="195.277" cy="93.7307" rx="30.4308" ry="28.1154" fill="white"/>
<ellipse cx="94.3923" cy="142.023" rx="35.3923" ry="32.7462" fill="white"/>
<ellipse cx="82.4846" cy="148.308" rx="20.1769" ry="18.5231" fill="white"/>
</g>
<defs>
<filter id="filter0_bdi" x="37" y="18" width="208" height="169.205" filterUnits="userSpaceOnUse" color-interpolation-filters="sRGB">
<feFlood flood-opacity="0" result="BackgroundImageFix"/>
<feGaussianBlur in="BackgroundImage" stdDeviation="8"/>
<feComposite in2="SourceAlpha" operator="in" result="effect1_backgroundBlur"/>
<feColorMatrix in="SourceAlpha" type="matrix" values="0 0 0 0 0 0 0 0 0 0 0 0 0 0 0 0 0 0 127 0" result="hardAlpha"/>
<feOffset dy="16"/>
<feGaussianBlur stdDeviation="16"/>
<feColorMatrix type="matrix" values="0 0 0 0 0 0 0 0 0 0.2015 0 0 0 0 0.3875 0 0 0 0.2 0"/>
<feBlend mode="normal" in2="effect1_backgroundBlur" result="effect2_dropShadow"/>
<feBlend mode="normal" in="SourceGraphic" in2="effect2_dropShadow" result="shape"/>
<feColorMatrix in="SourceAlpha" type="matrix" values="0 0 0 0 0 0 0 0 0 0 0 0 0 0 0 0 0 0 127 0" result="hardAlpha"/>
<feOffset dx="1" dy="2"/>
<feGaussianBlur stdDeviation="7"/>
<feComposite in2="hardAlpha" operator="arithmetic" k2="-1" k3="1"/>
<feColorMatrix type="matrix" values="0 0 0 0 1 0 0 0 0 1 0 0 0 0 1 0 0 0 1 0"/>
<feBlend mode="normal" in2="shape" result="effect3_innerShadow"/>
</filter>
<filter id="filter1_i" x="69" y="80.0273" width="81.1781" height="71.1781" filterUnits="userSpaceOnUse" color-interpolation-filters="sRGB">
<feFlood flood-opacity="0" result="BackgroundImageFix"/>
<feBlend mode="normal" in="SourceGraphic" in2="BackgroundImageFix" result="shape"/>
<feColorMatrix in="SourceAlpha" type="matrix" values="0 0 0 0 0 0 0 0 0 0 0 0 0 0 0 0 0 0 127 0" result="hardAlpha"/>
<feOffset dx="22" dy="12"/>
<feGaussianBlur stdDeviation="15"/>
<feComposite in2="hardAlpha" operator="arithmetic" k2="-1" k3="1"/>
<feColorMatrix type="matrix" values="0 0 0 0 1 0 0 0 0 1 0 0 0 0 1 0 0 0 0.74 0"/>
<feBlend mode="normal" in2="shape" result="effect1_innerShadow"/>
</filter>
<filter id="filter2_f" x="0.175659" y="0.175629" width="284.356" height="233.418" filterUnits="userSpaceOnUse" color-interpolation-filters="sRGB">
<feFlood flood-opacity="0" result="BackgroundImageFix"/>
<feBlend mode="normal" in="SourceGraphic" in2="BackgroundImageFix" result="shape"/>
<feGaussianBlur stdDeviation="29.4122" result="effect1_foregroundBlur"/>
</filter>
<radialGradient id="paint0_radial" cx="0" cy="0" r="1" gradientUnits="userSpaceOnUse" gradientTransform="translate(130.5 60.5) rotate(79.5625) scale(57.959 85.058)">
<stop stop-color="#DDDEDF"/>
<stop offset="0.869792" stop-color="#8AADCD"/>
</radialGradient>
</defs>
</svg>
