<svg width="209" height="54" viewBox="0 0 209 54" fill="none" xmlns="http://www.w3.org/2000/svg">
<circle cx="35.1004" cy="18.6631" r="15.7347" fill="url(#paint0_radial)"/>
<circle cx="34.6493" cy="19.15" r="18.65" fill="url(#paint1_radial)" stroke="#F1B04E"/>
<g filter="url(#filter0_bi)">
<path fill-rule="evenodd" clip-rule="evenodd" d="M9.38101 53.4171C9.31321 53.4186 9.24522 53.4193 9.17705 53.4193C4.10871 53.4193 0 49.3104 0 44.2419C0 40.8022 1.89222 37.8045 4.69246 36.233C4.69111 36.1495 4.69043 36.0659 4.69043 35.9821C4.69043 27.5908 11.4926 20.7883 19.8836 20.7883C27.1215 20.7883 33.1773 25.8498 34.7049 32.6264C40.2431 32.859 44.6616 37.4226 44.6616 43.0182C44.6616 48.7626 40.005 53.4193 34.2609 53.4193C34.1244 53.4193 33.9884 53.4167 33.8532 53.4115V53.4194H9.38101V53.4171Z" fill="url(#paint2_radial)" fill-opacity="0.77"/>
</g>
<path d="M78.1372 19.7031L74.2372 33.6631H70.9372L68.3172 23.7231L65.5772 33.6631L62.2972 33.6831L58.5372 19.7031H61.5372L63.9972 30.5431L66.8372 19.7031H69.9572L72.6372 30.4831L75.1172 19.7031H78.1372ZM82.7654 21.9631V25.4631H87.4654V27.6831H82.7654V31.3831H88.0654V33.6631H79.9654V19.6831H88.0654V21.9631H82.7654ZM99.17 31.0031H93.61L92.69 33.6631H89.75L94.77 19.6831H98.03L103.05 33.6631H100.09L99.17 31.0031ZM98.41 28.7631L96.39 22.9231L94.37 28.7631H98.41ZM114.426 19.7031V21.9631H110.706V33.6631H107.906V21.9631H104.186V19.7031H114.426ZM128.049 19.7031V33.6631H125.249V27.7231H119.269V33.6631H116.469V19.7031H119.269V25.4431H125.249V19.7031H128.049ZM133.605 21.9631V25.4631H138.305V27.6831H133.605V31.3831H138.905V33.6631H130.805V19.6831H138.905V21.9631H133.605ZM148.65 33.6631L145.57 28.2231H144.25V33.6631H141.45V19.7031H146.69C147.77 19.7031 148.69 19.8964 149.45 20.2831C150.21 20.6564 150.776 21.1698 151.15 21.8231C151.536 22.4631 151.73 23.1831 151.73 23.9831C151.73 24.9031 151.463 25.7364 150.93 26.4831C150.396 27.2164 149.603 27.7231 148.55 28.0031L151.89 33.6631H148.65ZM144.25 26.1231H146.59C147.35 26.1231 147.916 25.9431 148.29 25.5831C148.663 25.2098 148.85 24.6964 148.85 24.0431C148.85 23.4031 148.663 22.9098 148.29 22.5631C147.916 22.2031 147.35 22.0231 146.59 22.0231H144.25V26.1231ZM162.782 25.3431V27.7031H154.302V25.3431H162.782ZM174.482 31.0031H168.922L168.002 33.6631H165.062L170.082 19.6831H173.342L178.362 33.6631H175.402L174.482 31.0031ZM173.722 28.7631L171.702 22.9231L169.682 28.7631H173.722ZM190.419 24.0231C190.419 24.7698 190.239 25.4698 189.879 26.1231C189.532 26.7764 188.979 27.3031 188.219 27.7031C187.472 28.1031 186.526 28.3031 185.379 28.3031H183.039V33.6631H180.239V19.7031H185.379C186.459 19.7031 187.379 19.8898 188.139 20.2631C188.899 20.6364 189.466 21.1498 189.839 21.8031C190.226 22.4564 190.419 23.1964 190.419 24.0231ZM185.259 26.0431C186.032 26.0431 186.606 25.8698 186.979 25.5231C187.352 25.1631 187.539 24.6631 187.539 24.0231C187.539 22.6631 186.779 21.9831 185.259 21.9831H183.039V26.0431H185.259ZM202.587 24.0231C202.587 24.7698 202.407 25.4698 202.047 26.1231C201.7 26.7764 201.147 27.3031 200.387 27.7031C199.64 28.1031 198.694 28.3031 197.547 28.3031H195.207V33.6631H192.407V19.7031H197.547C198.627 19.7031 199.547 19.8898 200.307 20.2631C201.067 20.6364 201.634 21.1498 202.007 21.8031C202.394 22.4564 202.587 23.1964 202.587 24.0231ZM197.427 26.0431C198.2 26.0431 198.774 25.8698 199.147 25.5231C199.52 25.1631 199.707 24.6631 199.707 24.0231C199.707 22.6631 198.947 21.9831 197.427 21.9831H195.207V26.0431H197.427Z" fill="white"/>
<defs>
<filter id="filter0_bi" x="-16" y="4.78833" width="76.6616" height="64.6311" filterUnits="userSpaceOnUse" color-interpolation-filters="sRGB">
<feFlood flood-opacity="0" result="BackgroundImageFix"/>
<feGaussianBlur in="BackgroundImage" stdDeviation="8"/>
<feComposite in2="SourceAlpha" operator="in" result="effect1_backgroundBlur"/>
<feBlend mode="normal" in="SourceGraphic" in2="effect1_backgroundBlur" result="shape"/>
<feColorMatrix in="SourceAlpha" type="matrix" values="0 0 0 0 0 0 0 0 0 0 0 0 0 0 0 0 0 0 127 0" result="hardAlpha"/>
<feOffset dx="1" dy="2"/>
<feGaussianBlur stdDeviation="7"/>
<feComposite in2="hardAlpha" operator="arithmetic" k2="-1" k3="1"/>
<feColorMatrix type="matrix" values="0 0 0 0 1 0 0 0 0 1 0 0 0 0 1 0 0 0 1 0"/>
<feBlend mode="normal" in2="shape" result="effect2_innerShadow"/>
</filter>
<radialGradient id="paint0_radial" cx="0" cy="0" r="1" gradientUnits="userSpaceOnUse" gradientTransform="translate(41.3609 10.0863) rotate(132.136) scale(32.7847)">
<stop stop-color="#FAF22A"/>
<stop offset="1" stop-color="#F4982C"/>
</radialGradient>
<radialGradient id="paint1_radial" cx="0" cy="0" r="1" gradientUnits="userSpaceOnUse" gradientTransform="translate(42.2687 8.71155) rotate(132.136) scale(39.901)">
<stop stop-color="#FAF22A"/>
<stop offset="1" stop-color="#F4982C"/>
</radialGradient>
<radialGradient id="paint2_radial" cx="0" cy="0" r="1" gradientUnits="userSpaceOnUse" gradientTransform="translate(15.7365 27.7458) rotate(90.6692) scale(25.662 29.2823)">
<stop stop-color="white"/>
<stop offset="1" stop-color="#99CEFF"/>
</radialGradient>
</defs>
</svg>
