<svg width="54" height="54" viewBox="0 0 54 54" fill="none" xmlns="http://www.w3.org/2000/svg">
<circle cx="35.1004" cy="18.6631" r="15.7347" fill="url(#paint0_radial)"/>
<circle cx="34.6493" cy="19.15" r="18.65" fill="url(#paint1_radial)" stroke="#F1B04E"/>
<g filter="url(#filter0_bi)">
<path fill-rule="evenodd" clip-rule="evenodd" d="M9.38101 53.4171C9.31321 53.4186 9.24522 53.4193 9.17705 53.4193C4.10871 53.4193 0 49.3104 0 44.2419C0 40.8022 1.89222 37.8045 4.69246 36.233C4.69111 36.1495 4.69043 36.0659 4.69043 35.9821C4.69043 27.5908 11.4926 20.7883 19.8836 20.7883C27.1215 20.7883 33.1773 25.8498 34.7049 32.6264C40.2431 32.859 44.6616 37.4226 44.6616 43.0182C44.6616 48.7626 40.005 53.4193 34.2609 53.4193C34.1244 53.4193 33.9884 53.4167 33.8532 53.4115V53.4194H9.38101V53.4171Z" fill="url(#paint2_radial)" fill-opacity="0.77"/>
</g>
<defs>
<filter id="filter0_bi" x="-16" y="4.78833" width="76.6616" height="64.6311" filterUnits="userSpaceOnUse" color-interpolation-filters="sRGB">
<feFlood flood-opacity="0" result="BackgroundImageFix"/>
<feGaussianBlur in="BackgroundImage" stdDeviation="8"/>
<feComposite in2="SourceAlpha" operator="in" result="effect1_backgroundBlur"/>
<feBlend mode="normal" in="SourceGraphic" in2="effect1_backgroundBlur" result="shape"/>
<feColorMatrix in="SourceAlpha" type="matrix" values="0 0 0 0 0 0 0 0 0 0 0 0 0 0 0 0 0 0 127 0" result="hardAlpha"/>
<feOffset dx="1" dy="2"/>
<feGaussianBlur stdDeviation="7"/>
<feComposite in2="hardAlpha" operator="arithmetic" k2="-1" k3="1"/>
<feColorMatrix type="matrix" values="0 0 0 0 1 0 0 0 0 1 0 0 0 0 1 0 0 0 1 0"/>
<feBlend mode="normal" in2="shape" result="effect2_innerShadow"/>
</filter>
<radialGradient id="paint0_radial" cx="0" cy="0" r="1" gradientUnits="userSpaceOnUse" gradientTransform="translate(41.3609 10.0863) rotate(132.136) scale(32.7847)">
<stop stop-color="#FAF22A"/>
<stop offset="1" stop-color="#F4982C"/>
</radialGradient>
<radialGradient id="paint1_radial" cx="0" cy="0" r="1" gradientUnits="userSpaceOnUse" gradientTransform="translate(42.2687 8.71155) rotate(132.136) scale(39.901)">
<stop stop-color="#FAF22A"/>
<stop offset="1" stop-color="#F4982C"/>
</radialGradient>
<radialGradient id="paint2_radial" cx="0" cy="0" r="1" gradientUnits="userSpaceOnUse" gradientTransform="translate(15.7365 27.7458) rotate(90.6692) scale(25.662 29.2823)">
<stop stop-color="white"/>
<stop offset="1" stop-color="#99CEFF"/>
</radialGradient>
</defs>
</svg>
